<svg width="368" height="409" xmlns="http://www.w3.org/2000/svg" xmlns:xlink="http://www.w3.org/1999/xlink" xml:space="preserve" overflow="hidden"><defs><filter id="fx0" x="-10%" y="-10%" width="120%" height="120%" filterUnits="userSpaceOnUse" primitiveUnits="userSpaceOnUse"><feComponentTransfer color-interpolation-filters="sRGB"><feFuncR type="discrete" tableValues="0 0"/><feFuncG type="discrete" tableValues="0 0"/><feFuncB type="discrete" tableValues="0 0"/><feFuncA type="linear" slope="0.4" intercept="0"/></feComponentTransfer><feGaussianBlur stdDeviation="6.11111 6.11111"/></filter><filter id="fx1" x="-10%" y="-10%" width="120%" height="120%" filterUnits="userSpaceOnUse" primitiveUnits="userSpaceOnUse"><feComponentTransfer color-interpolation-filters="sRGB"><feFuncR type="discrete" tableValues="0 0"/><feFuncG type="discrete" tableValues="0 0"/><feFuncB type="discrete" tableValues="0 0"/><feFuncA type="linear" slope="0.4" intercept="0"/></feComponentTransfer><feGaussianBlur stdDeviation="4.58333 4.58333"/></filter><clipPath id="clip2"><rect x="1631" y="-5" width="368" height="409"/></clipPath></defs><g clip-path="url(#clip2)" transform="translate(-1631 5)"><g filter="url(#fx0)" transform="translate(1630 -6)"><g><path d="M116.251 391 103.914 328.451C24.55 283.669-3.48379 183.028 41.2988 103.664 86.0814 24.2999 186.722-3.73388 266.086 41.0487 345.45 85.8313 373.484 186.472 328.701 265.836 295.647 324.415 230.345 357.066 163.65 348.363Z" fill="#E8E8E8" fill-rule="evenodd"/></g></g><path d="M1746.25 371.25 1733.91 308.701C1654.55 263.919 1626.52 163.278 1671.3 83.9139 1716.08 4.54989 1816.72-23.4839 1896.09 21.2987 1975.45 66.0813 2003.48 166.722 1958.7 246.086 1925.65 304.665 1860.35 337.316 1793.65 328.613Z" fill="#E8E8E8" fill-rule="evenodd"/><g filter="url(#fx1)" transform="translate(1701 102)"><g><path d="M81 129.167 147 15.1666 213 129.167Z" fill="#2DD4BF" fill-rule="evenodd"/><path d="M0 114 66 0 132 114Z" fill="#475569" fill-rule="evenodd" transform="matrix(1 0 0 -1 15 129.167)"/></g></g><path d="M1782 222 1848 108 1914 222Z" fill="#2DD4BF" fill-rule="evenodd"/><path d="M0 114 66 0 132 114Z" fill="#475569" fill-rule="evenodd" transform="matrix(1 0 0 -1 1716 222)"/></g></svg>