<svg width="377" height="422" xmlns="http://www.w3.org/2000/svg" xmlns:xlink="http://www.w3.org/1999/xlink" xml:space="preserve" overflow="hidden"><defs><filter id="fx0" x="-10%" y="-10%" width="120%" height="120%" filterUnits="userSpaceOnUse" primitiveUnits="userSpaceOnUse"><feComponentTransfer color-interpolation-filters="sRGB"><feFuncR type="discrete" tableValues="0 0"/><feFuncG type="discrete" tableValues="0 0"/><feFuncB type="discrete" tableValues="0 0"/><feFuncA type="linear" slope="0.4" intercept="0"/></feComponentTransfer><feGaussianBlur stdDeviation="6.11111 6.11111"/></filter><filter id="fx1" x="-10%" y="-10%" width="120%" height="120%" filterUnits="userSpaceOnUse" primitiveUnits="userSpaceOnUse"><feComponentTransfer color-interpolation-filters="sRGB"><feFuncR type="discrete" tableValues="0 0"/><feFuncG type="discrete" tableValues="0 0"/><feFuncB type="discrete" tableValues="0 0"/><feFuncA type="linear" slope="0.4" intercept="0"/></feComponentTransfer><feGaussianBlur stdDeviation="4.58333 4.58333"/></filter><clipPath id="clip2"><rect x="1627" y="-9" width="377" height="422"/></clipPath><clipPath id="clip3"><path d="M1802.39 1.00449C1749.6 5.2596 1699.79 34.8112 1671.8 84.4137 1627.02 163.778 1655.05 264.418 1734.41 309.201L1746.75 371.75 1794.15 329.113C1860.84 337.816 1926.15 305.164 1959.2 246.586 2003.98 167.222 1975.95 66.5812 1896.59 21.7986 1866.82 5.00509 1834.07-1.54858 1802.39 1.00449ZM1627-9 2004-9 2004 413 1627 413Z" fill-rule="evenodd" clip-rule="evenodd"/></clipPath></defs><g clip-path="url(#clip2)" transform="translate(-1627 9)"><g clip-path="url(#clip3)"><g filter="url(#fx0)" transform="translate(1626 -10)"><g><path d="M120.751 395.5 108.414 332.951C29.0498 288.168 1.01608 187.528 45.7987 108.164 90.5813 28.7997 191.222 0.765959 270.586 45.5486 349.95 90.3312 377.984 190.972 333.201 270.336 300.147 328.914 234.845 361.566 168.15 352.863Z" stroke="#2563EB" stroke-width="9" stroke-miterlimit="8" fill="#E8E8E8" fill-rule="evenodd"/></g></g></g><path d="M1746.75 371.75 1734.41 309.201C1655.05 264.418 1627.02 163.778 1671.8 84.4137 1716.58 5.04972 1817.22-22.984 1896.59 21.7986 1975.95 66.5812 2003.98 167.222 1959.2 246.586 1926.15 305.164 1860.84 337.816 1794.15 329.113Z" stroke="#2563EB" stroke-width="9.16667" stroke-miterlimit="8" fill="#E8E8E8" fill-rule="evenodd"/><g filter="url(#fx1)" transform="translate(1701 102)"><g><path d="M81 129.167 147 15.1666 213 129.167Z" fill="#74E2D5" fill-rule="evenodd"/><path d="M0 114 66 0 132 114Z" fill="#1E293B" fill-rule="evenodd" transform="matrix(1 0 0 -1 15 129.167)"/></g></g><path d="M1782 222 1848 108 1914 222Z" fill="#74E2D5" fill-rule="evenodd"/><path d="M0 114 66 0 132 114Z" fill="#1E293B" fill-rule="evenodd" transform="matrix(1 0 0 -1 1716 222)"/></g></svg>