<svg width="368" height="409" xmlns="http://www.w3.org/2000/svg" xmlns:xlink="http://www.w3.org/1999/xlink" xml:space="preserve" overflow="hidden"><defs><filter id="fx0" x="-10%" y="-10%" width="120%" height="120%" filterUnits="userSpaceOnUse" primitiveUnits="userSpaceOnUse"><feComponentTransfer color-interpolation-filters="sRGB"><feFuncR type="discrete" tableValues="0 0"/><feFuncG type="discrete" tableValues="0 0"/><feFuncB type="discrete" tableValues="0 0"/><feFuncA type="linear" slope="0.4" intercept="0"/></feComponentTransfer><feGaussianBlur stdDeviation="6.11111 6.11111"/></filter><filter id="fx1" x="-10%" y="-10%" width="120%" height="120%" filterUnits="userSpaceOnUse" primitiveUnits="userSpaceOnUse"><feComponentTransfer color-interpolation-filters="sRGB"><feFuncR type="discrete" tableValues="0 0"/><feFuncG type="discrete" tableValues="0 0"/><feFuncB type="discrete" tableValues="0 0"/><feFuncA type="linear" slope="0.4" intercept="0"/></feComponentTransfer><feGaussianBlur stdDeviation="6.11111 6.11111"/></filter><clipPath id="clip2"><rect x="1190" y="928" width="368" height="409"/></clipPath><radialGradient cx="457200" cy="514310" r="688261" fx="914481" fy="1028700" gradientUnits="userSpaceOnUse" spreadMethod="pad" id="fill3" gradientTransform="matrix(0.000360892 0 0 0.000360892 1209 933)"><stop offset="0" stop-color="#CCF4EF"/><stop offset="0.5" stop-color="#14B8A6"/><stop offset="1" stop-color="#14B8A6"/></radialGradient></defs><g clip-path="url(#clip2)" transform="translate(-1190 -928)"><g filter="url(#fx0)" transform="translate(1189 927)"><g><path d="M116.251 391 103.914 328.451C24.55 283.669-3.48379 183.028 41.2988 103.664 86.0814 24.2998 186.722-3.73394 266.086 41.0487 345.45 85.8313 373.484 186.472 328.701 265.836 295.647 324.414 230.345 357.066 163.65 348.363Z" fill="#FF0000" fill-rule="evenodd"/></g></g><path d="M1305.25 1304.25 1292.91 1241.7C1213.55 1196.92 1185.52 1096.28 1230.3 1016.91 1275.08 937.55 1375.72 909.516 1455.09 954.299 1534.45 999.081 1562.48 1099.72 1517.7 1179.09 1484.65 1237.66 1419.35 1270.32 1352.65 1261.61Z" fill="url(#fill3)" fill-rule="evenodd"/><g filter="url(#fx1)" transform="translate(1255 1035)"><g><path d="M0 114 66 0 132 114Z" fill="#F1F5F9" fill-rule="evenodd" transform="matrix(1 0 0 -1 20 133.75)"/><path d="M86 133.75 152 19.7499 218 133.75Z" fill="#63768D" fill-rule="evenodd"/></g></g><path d="M0 114 66 0 132 114Z" fill="#F1F5F9" fill-rule="evenodd" transform="matrix(1 0 0 -1 1275 1155)"/><path d="M1341 1155 1407 1041 1473 1155Z" fill="#63768D" fill-rule="evenodd"/></g></svg>